<svg xmlns="http://www.w3.org/2000/svg" viewBox="0 0 446.42 112.00" role="img" aria-label="ADI — Annual Deprivation Index">
  <title>ADI — Annual Deprivation Index (light)</title>
  <g transform="translate(6.00,6.00)">
    <g transform="translate(0.00,0.00)">

  <rect x="2.250" y="2.250" width="95.500" height="95.500" fill="none" stroke="currentColor" stroke-width="4.500"/>
    <rect x="13.500" y="13.500" width="15.239" height="15.239" fill="#d7dde3"/>
    <rect x="32.754" y="13.500" width="15.239" height="15.239" fill="#b3bdc7"/>
    <rect x="52.008" y="13.500" width="15.239" height="15.239" fill="#b3bdc7"/>
    <rect x="71.261" y="13.500" width="15.239" height="15.239" fill="#8b97a4"/>
    <rect x="13.500" y="32.754" width="15.239" height="15.239" fill="#b3bdc7"/>
    <rect x="32.754" y="32.754" width="15.239" height="15.239" fill="#b3bdc7"/>
    <rect x="52.008" y="32.754" width="15.239" height="15.239" fill="var(--adi-accent, #fbc441)"/>
    <rect x="71.261" y="32.754" width="15.239" height="15.239" fill="#636f7d"/>
    <rect x="13.500" y="52.008" width="15.239" height="15.239" fill="#b3bdc7"/>
    <rect x="32.754" y="52.008" width="15.239" height="15.239" fill="var(--adi-accent, #fbc441)"/>
    <rect x="52.008" y="52.008" width="15.239" height="15.239" fill="#636f7d"/>
    <rect x="71.261" y="52.008" width="15.239" height="15.239" fill="#636f7d"/>
    <rect x="13.500" y="71.261" width="15.239" height="15.239" fill="#8b97a4"/>
    <rect x="32.754" y="71.261" width="15.239" height="15.239" fill="#636f7d"/>
    <rect x="52.008" y="71.261" width="15.239" height="15.239" fill="#636f7d"/>
    <rect x="71.261" y="71.261" width="15.239" height="15.239" fill="#424b56"/>
    </g>
    <g transform="translate(134.00,73.10)" fill="currentColor"><g transform="translate(0.000,-0.000) scale(0.07000,-0.07000)"><path d="M14 0H229V66H149L197 213H425L473 66H393V0H686V66H636L419 698H281L64 66H14ZM309 576H313L407 282H217Z"/></g><g transform="translate(48.930,-0.000) scale(0.07000,-0.07000)"><path d="M41 0H367C558 0 703 127 703 349C703 571 558 698 367 698H41V632H111V66H41ZM273 626H338C472 626 525 577 525 441V257C525 121 472 72 338 72H273Z"/></g><g transform="translate(101.780,-0.000) scale(0.07000,-0.07000)"><path d="M41 0H343V66H273V632H343V698H41V632H111V66H41Z"/></g></g>
    <g transform="translate(278.66,45.44)" fill="currentColor" fill-opacity="0.78"><g transform="translate(0.000,-0.000) scale(0.01900,-0.01900)"><path d="M640 0 402 698H260L22 0H137L198 189H459L522 0ZM431 286H225L326 594H331Z"/></g><g transform="translate(12.578,-0.000) scale(0.01900,-0.01900)"><path d="M187 0V348C187 409 243 438 300 438C367 438 398 397 398 316V0H507V330C507 458 444 532 338 532C258 532 214 490 192 434H187V520H78V0Z"/></g><g transform="translate(23.598,-0.000) scale(0.01900,-0.01900)"><path d="M187 0V348C187 409 243 438 300 438C367 438 398 397 398 316V0H507V330C507 458 444 532 338 532C258 532 214 490 192 434H187V520H78V0Z"/></g><g transform="translate(34.618,-0.000) scale(0.01900,-0.01900)"><path d="M393 0H502V520H393V172C393 111 338 82 282 82C215 82 182 124 182 203V520H73V189C73 61 136 -12 243 -12C329 -12 370 35 389 86H393Z"/></g><g transform="translate(45.638,-0.000) scale(0.01900,-0.01900)"><path d="M520 0V89H465V350C465 466 390 532 256 532C155 532 94 489 60 431L125 372C151 413 188 443 249 443C322 443 356 406 356 343V299H262C117 299 40 246 40 143C40 49 101 -12 208 -12C284 -12 340 22 360 87H365C372 36 402 0 459 0ZM239 71C185 71 151 95 151 141V159C151 204 188 229 264 229H356V154C356 103 306 71 239 71Z"/></g><g transform="translate(56.069,-0.000) scale(0.01900,-0.01900)"><path d="M259 0V89H187V740H78V108C78 41 115 0 189 0Z"/></g></g>
    <g transform="translate(278.66,67.86)" fill="currentColor" fill-opacity="0.78"><g transform="translate(0.000,-0.000) scale(0.01900,-0.01900)"><path d="M86 0H333C511 0 628 116 628 349C628 582 511 698 333 698H86ZM199 100V598H333C437 598 507 531 507 405V293C507 167 437 100 333 100Z"/></g><g transform="translate(12.977,-0.000) scale(0.01900,-0.01900)"><path d="M282 -12C379 -12 455 30 494 93L430 156C400 108 357 78 293 78C205 78 156 135 156 215V232H513V273C513 417 435 532 282 532C134 532 43 426 43 260C43 94 134 -12 282 -12ZM282 447C354 447 398 394 398 314V304H156V311C156 391 207 447 282 447Z"/></g><g transform="translate(23.541,-0.000) scale(0.01900,-0.01900)"><path d="M78 -200H187V86H192C214 25 269 -12 338 -12C469 -12 545 89 545 260C545 431 469 532 338 532C269 532 214 496 192 434H187V520H78ZM305 82C239 82 187 118 187 171V349C187 402 239 438 305 438C380 438 430 385 430 305V215C430 135 380 82 305 82Z"/></g><g transform="translate(34.789,-0.000) scale(0.01900,-0.01900)"><path d="M187 0V332C187 386 235 415 321 415H364V520H335C252 520 207 473 192 420H187V520H78V0Z"/></g><g transform="translate(42.066,-0.000) scale(0.01900,-0.01900)"><path d="M133 613C178 613 197 637 197 670V687C197 720 178 744 133 744C88 744 68 720 68 687V670C68 637 88 613 133 613ZM78 0H187V520H78Z"/></g><g transform="translate(47.101,-0.000) scale(0.01900,-0.01900)"><path d="M319 0 498 520H394L313 283L260 101H254L201 283L122 520H14L191 0Z"/></g><g transform="translate(56.658,-0.000) scale(0.01900,-0.01900)"><path d="M520 0V89H465V350C465 466 390 532 256 532C155 532 94 489 60 431L125 372C151 413 188 443 249 443C322 443 356 406 356 343V299H262C117 299 40 246 40 143C40 49 101 -12 208 -12C284 -12 340 22 360 87H365C372 36 402 0 459 0ZM239 71C185 71 151 95 151 141V159C151 204 188 229 264 229H356V154C356 103 306 71 239 71Z"/></g><g transform="translate(67.032,-0.000) scale(0.01900,-0.01900)"><path d="M317 0V89H216V431H325V520H216V662H118V571C118 535 106 520 70 520H26V431H107V113C107 42 147 0 222 0Z"/></g><g transform="translate(73.967,-0.000) scale(0.01900,-0.01900)"><path d="M133 613C178 613 197 637 197 670V687C197 720 178 744 133 744C88 744 68 720 68 687V670C68 637 88 613 133 613ZM78 0H187V520H78Z"/></g><g transform="translate(79.002,-0.000) scale(0.01900,-0.01900)"><path d="M282 -12C427 -12 521 94 521 260C521 426 427 532 282 532C137 532 43 426 43 260C43 94 137 -12 282 -12ZM282 78C208 78 158 124 158 216V304C158 396 208 442 282 442C356 442 406 396 406 304V216C406 124 356 78 282 78Z"/></g><g transform="translate(89.718,-0.000) scale(0.01900,-0.01900)"><path d="M187 0V348C187 409 243 438 300 438C367 438 398 397 398 316V0H507V330C507 458 444 532 338 532C258 532 214 490 192 434H187V520H78V0Z"/></g><g transform="translate(105.222,-0.000) scale(0.01900,-0.01900)"><path d="M360 0V92H264V606H360V698H56V606H151V92H56V0Z"/></g><g transform="translate(113.126,-0.000) scale(0.01900,-0.01900)"><path d="M187 0V348C187 409 243 438 300 438C367 438 398 397 398 316V0H507V330C507 458 444 532 338 532C258 532 214 490 192 434H187V520H78V0Z"/></g><g transform="translate(124.146,-0.000) scale(0.01900,-0.01900)"><path d="M405 0H514V740H405V434H400C378 496 323 532 254 532C123 532 47 431 47 260C47 89 123 -12 254 -12C323 -12 378 25 400 86H405ZM287 82C212 82 162 135 162 215V305C162 385 212 438 287 438C353 438 405 402 405 349V171C405 118 353 82 287 82Z"/></g><g transform="translate(135.394,-0.000) scale(0.01900,-0.01900)"><path d="M282 -12C379 -12 455 30 494 93L430 156C400 108 357 78 293 78C205 78 156 135 156 215V232H513V273C513 417 435 532 282 532C134 532 43 426 43 260C43 94 134 -12 282 -12ZM282 447C354 447 398 394 398 314V304H156V311C156 391 207 447 282 447Z"/></g><g transform="translate(145.692,-0.000) scale(0.01900,-0.01900)"><path d="M20 0H136L261 189H264L384 0H510L329 264L507 520H391L271 339H268L151 520H25L203 263Z"/></g></g>
  </g>
</svg>
